<svg width="31" height="34" viewBox="0 0 31 34" fill="none" xmlns="http://www.w3.org/2000/svg">
<g id="elements">
<path id="Rectangle 2173" d="M17.0835 1.16675H17.5153C22.6789 1.16675 25.2607 1.16675 27.0536 2.42999C27.5673 2.79193 28.0234 3.22116 28.408 3.70466C29.7502 5.39215 29.7502 7.82206 29.7502 12.6819V16.7122C29.7502 21.4039 29.7502 23.7497 29.0077 25.6233C27.814 28.6353 25.2897 31.0112 22.0894 32.1346C20.0988 32.8334 17.6063 32.8334 12.6214 32.8334C9.77285 32.8334 8.34859 32.8334 7.21106 32.4341C5.38233 31.7921 3.93985 30.4345 3.25777 28.7134C2.8335 27.6427 2.8335 26.3023 2.8335 23.6213V17.0001" stroke="white" stroke-width="2" stroke-linecap="round" stroke-linejoin="round"/>
<path id="Vector" d="M29.7498 17C29.7498 19.9148 27.3869 22.2778 24.4721 22.2778C23.4179 22.2778 22.1751 22.0931 21.1502 22.3677C20.2395 22.6117 19.5282 23.323 19.2842 24.2337C19.0096 25.2586 19.1943 26.5014 19.1943 27.5556C19.1943 30.4704 16.8313 32.8333 13.9165 32.8333" stroke="white" stroke-width="2" stroke-linecap="round" stroke-linejoin="round"/>
<path id="Vector_2" d="M13.9167 7.50008L1.25 7.50008M7.58333 1.16675V13.8334" stroke="white" stroke-width="2" stroke-linecap="round"/>
</g>
</svg>
