<svg width="22" height="22" viewBox="0 0 22 22" fill="none" xmlns="http://www.w3.org/2000/svg">
<g id="Image 2">
<path id="Stroke 1" fill-rule="evenodd" clip-rule="evenodd" d="M15.6614 0.979004H6.28842C3.02542 0.979004 0.979004 3.29084 0.979004 6.5625V15.3873C0.979004 18.659 3.01675 20.9708 6.28842 20.9708H15.656C18.9331 20.9708 20.9698 18.659 20.9698 15.3873V6.5625C20.9741 3.29084 18.9363 0.979004 15.6614 0.979004Z" stroke="white" stroke-width="1.5" stroke-linecap="round" stroke-linejoin="round"/>
<path id="Stroke 3" fill-rule="evenodd" clip-rule="evenodd" d="M9.59537 7.51717C9.59537 8.62217 8.70054 9.517 7.59554 9.517C6.49162 9.517 5.5957 8.62217 5.5957 7.51717C5.5957 6.41217 6.49162 5.51733 7.59554 5.51733C8.69945 5.51842 9.59429 6.41325 9.59537 7.51717Z" stroke="white" stroke-width="1.5" stroke-linecap="round" stroke-linejoin="round"/>
<path id="Stroke 5" d="M20.9743 14.197C19.9743 13.1678 18.0514 11.0889 15.9606 11.0889C13.8687 11.0889 12.6629 15.6746 10.6512 15.6746C8.63942 15.6746 6.81183 13.6011 5.19983 14.9304C3.58783 16.2585 2.0625 18.9744 2.0625 18.9744" stroke="white" stroke-width="1.5" stroke-linecap="round" stroke-linejoin="round"/>
</g>
</svg>
