<svg width="27" height="26" viewBox="0 0 27 26" fill="none" xmlns="http://www.w3.org/2000/svg">
<g id="3d-square 1">
<path id="Vector" d="M16.875 24.6459H10.125C4.01625 24.6459 1.40625 22.1326 1.40625 16.2501V9.75008C1.40625 3.86758 4.01625 1.35425 10.125 1.35425H16.875C22.9837 1.35425 25.5938 3.86758 25.5938 9.75008V16.2501C25.5938 22.1326 22.9837 24.6459 16.875 24.6459ZM10.125 2.97925C4.93875 2.97925 3.09375 4.75591 3.09375 9.75008V16.2501C3.09375 21.2442 4.93875 23.0209 10.125 23.0209H16.875C22.0613 23.0209 23.9062 21.2442 23.9062 16.2501V9.75008C23.9062 4.75591 22.0613 2.97925 16.875 2.97925H10.125Z" fill="white"/>
<path id="Vector_2" d="M13.5004 14.1696C13.3542 14.1696 13.2079 14.1371 13.0729 14.0613L7.11045 10.7463C6.70545 10.5188 6.57042 10.0204 6.80667 9.64126C7.04292 9.25126 7.56045 9.12126 7.9542 9.34876L13.4892 12.4363L18.9904 9.37043C19.3954 9.14293 19.9129 9.28376 20.1379 9.66293C20.3629 10.0421 20.2279 10.5513 19.8342 10.7679L13.9167 14.0613C13.7929 14.1263 13.6467 14.1696 13.5004 14.1696Z" fill="white"/>
<path id="Vector_3" d="M13.5 20.0635C13.0387 20.0635 12.6562 19.6952 12.6562 19.251V13.3577C12.6562 12.9135 13.0387 12.5452 13.5 12.5452C13.9612 12.5452 14.3438 12.9135 14.3438 13.3577V19.251C14.3438 19.6952 13.9612 20.0635 13.5 20.0635Z" fill="white"/>
<path id="Vector_4" d="M13.5 20.3124C12.8475 20.3124 12.2063 20.1715 11.6888 19.9007L8.08879 17.9724C7.00879 17.3982 6.17627 16.0224 6.17627 14.8307V11.1582C6.17627 9.97738 7.02004 8.60154 8.08879 8.01654L11.6888 6.0882C12.7238 5.5357 14.2762 5.5357 15.3112 6.0882L18.9112 8.01654C19.9912 8.5907 20.8238 9.96655 20.8238 11.1582V14.8307C20.8238 16.0115 19.98 17.3874 18.9112 17.9724L15.3112 19.9007C14.7937 20.1824 14.1525 20.3124 13.5 20.3124ZM13.5 7.31237C13.1287 7.31237 12.7687 7.37737 12.51 7.5182L8.91005 9.44654C8.3588 9.73904 7.86377 10.5624 7.86377 11.1582V14.8307C7.86377 15.4374 8.3588 16.2499 8.91005 16.5424L12.51 18.4707C13.0275 18.7524 13.9725 18.7524 14.49 18.4707L18.09 16.5424C18.6412 16.2499 19.1363 15.4265 19.1363 14.8307V11.1582C19.1363 10.5515 18.6412 9.73904 18.09 9.44654L14.49 7.5182C14.2312 7.37737 13.8712 7.31237 13.5 7.31237Z" fill="white"/>
</g>
</svg>
